<svg width="310" height="365" viewBox="0 0 310 365" fill="none" xmlns="http://www.w3.org/2000/svg">
<path opacity="0.1" d="M284.644 174.093C274.529 178.66 266.483 180.559 266.483 180.559L260.813 202.104C265.015 210.14 269.434 217.048 271.206 227.954C283.422 215.606 287.565 193.752 284.644 174.093L284.644 174.093ZM259.023 242.73C259.023 242.73 259.707 233.401 254.718 223.185L238.167 219.168C238.167 219.168 211.025 231.789 197.386 228.602C197.386 228.602 201.217 244.098 203.099 252.162C210.957 252.565 225.579 250.358 232.455 245.792C232.455 245.792 233.006 257.672 228.888 270.421C237.407 268.231 250.641 259.627 259.023 242.731L259.023 242.73ZM248.243 198.186L253.958 176.736C253.958 176.736 244.95 171.035 236.589 160.299C214.692 157.754 183.651 171.566 183.651 171.566C183.651 171.566 187.997 189.804 192.821 209.521C208.791 216.22 238.679 202.366 248.245 198.186L248.243 198.186ZM280.502 302.525L270.866 284.272C256.409 322.756 227.55 350.988 184.789 364.614L184.923 341.803C148.106 355.302 91.1571 355.197 52.2352 317.798C65.4611 291.134 78.1479 263.926 76.5055 226.836C40.9978 258.211 14.6157 267.163 14.6157 267.163C5.01886 234.635 21.5777 178.974 31.099 163.834L0.365748 164.795C5.41423 145.954 30.0459 109.713 56.2334 92.664L39.2186 85.1342L39.2009 85.1295C57.7062 64.3366 81.2686 48.4535 107.478 38.8037L107.513 38.7944C98.1674 47.2049 91.3374 72.3111 108.163 87.0668C103.7 70.8005 107.365 53.1574 118.376 46.4613C129.407 39.6874 143.037 46.6775 150.39 56.1911C149.744 47.6066 144.333 35.576 132.445 31.6729L132.428 31.6682C158.282 26.3461 185.882 26.8489 213.262 34.1852C218.377 35.5557 223.417 37.1398 228.287 38.9121C235.412 44.1591 244.167 58.2207 247.794 66.4858C247.794 66.4858 250.326 58.5693 248.35 47.6592C276.113 62.6419 287.108 78.1883 291.519 85.4451C289.388 98.2588 291.217 106.776 293.105 119.999C286.307 106.946 266.703 83.5687 256.264 76.4323C256.264 76.4323 252.421 87.0017 247.064 91.1403C228.434 68.8586 218.255 61.7751 218.255 61.7751C192.122 58.5446 173.378 63.6693 162.577 68.7526L168.543 77.1768C152.14 77.6551 138.874 87.7187 138.874 87.7187C138.923 87.9826 151.88 93.4569 151.88 93.4569C151.88 93.4569 146.38 108.489 163.58 123.445C178.323 136.257 205.447 132.527 225.996 147.646C215.455 126.63 207.05 116.25 207.05 116.25C207.05 116.25 201.382 113.43 197.154 112.33C191.871 110.948 183.736 109.853 175.997 104.275C172.295 101.597 168.227 97.5365 165.072 94.2212C165.072 94.2212 178.51 86.4566 194.624 88.2709C194.624 88.2709 207.567 95.8445 216.491 106.781C225.713 101.775 233.326 104.048 233.326 104.048C233.326 104.048 223.866 108.923 223.923 117.918C232.397 130.469 240.705 147.415 240.705 147.415C254.66 144.178 280.808 152.786 284.606 160.413C280.041 149.827 272.036 139.872 266.001 131.579C265.935 128.056 260.582 114.406 259.443 112.966C259.443 112.966 266.792 117.505 272.263 125.663C275.073 123.362 279.685 121.494 285.253 121.617C289.447 127.447 288.6 134.447 288.155 135.529C284.987 137.701 282.28 138.211 282.28 138.211L291.568 155.336L295.487 145.888C314.193 195.377 317.58 247.754 280.498 302.522L280.502 302.525ZM115.337 -23.2103C130.479 -10.9255 138.928 1.71913 140.545 3.73801C140.794 -0.834893 142.988 -22.5771 144.505 -36.0393C152.712 -26.5806 171.754 -4.62228 178.041 2.5365C183.666 -5.98667 202.66 -33.6579 202.66 -33.6579C202.66 -33.6579 213.939 2.37549 215.94 8.26894C221.13 5.20352 251.246 -13.8469 259.002 -18.6279C256.108 -3.79895 251.904 17.3881 251.417 20.6121C252.997 19.3832 265.203 9.56941 283.192 2.33988C273.365 13.0581 265.658 29.4179 260.582 42.8612C246.918 34.9108 231.942 28.5948 215.927 24.3036C185.159 16.0593 154.15 16.1952 125.459 23.3442C124.495 8.78332 121.83 -9.7214 115.337 -23.2103" fill="white"/>
</svg>
