<svg width="205" height="28" viewBox="0 0 205 28" fill="none" xmlns="http://www.w3.org/2000/svg">
<path fill-rule="evenodd" clip-rule="evenodd" d="M187.368 0.729511C183.829 0.131589 176.708 0.0345343 156.386 0.308329C141.753 0.505356 135.415 0.781844 120.831 1.85914C99.1201 3.46313 87.6779 4.99624 63.3901 9.55575C58.4802 10.4775 50.787 11.8056 46.2939 12.5072C27.3256 15.4693 5.58383 21.0984 4.91499 23.2209C4.82435 23.509 4.86306 23.7821 5.00118 23.8276C5.1393 23.873 6.95288 23.3167 9.03154 22.5917C12.5633 21.3595 15.583 20.5134 15.5016 20.7785C15.4821 20.8421 14.4752 21.2143 13.2637 21.6057C12.0525 21.9969 9.21238 22.9883 6.95277 23.8084C4.69307 24.6288 2.26332 25.4478 1.55283 25.6289C0.244172 25.9623 -0.365644 26.6894 0.440891 26.9546C1.24858 27.2202 4.76286 26.4495 9.67213 24.9297C15.0751 23.2576 34.7179 18.2387 41.8284 16.7137C49.1761 15.1378 56.7882 13.8466 61.7428 13.3357C89.2139 10.5032 100.561 9.90698 119.525 10.2993C145.857 10.8439 161.01 11.9846 180.794 14.9117C189.292 16.1689 197.071 17.5899 199.09 18.2539C200.151 18.603 200.656 18.5975 201.277 18.2295C202.414 17.5552 203.655 15.9316 204.072 14.5729C204.372 13.5958 204.317 13.302 203.717 12.6788C202.28 11.1861 201.5 11.0716 178.246 8.94024C159.228 7.19733 146.666 6.54808 129.441 6.41785C126.325 6.3941 123.671 6.33279 123.544 6.28131C123.145 6.1195 135.278 5.62321 141.445 5.54873C149.018 5.45726 166.379 5.93053 174.204 6.44183C179.98 6.81899 180.435 6.89586 183.109 7.94186C185.81 8.99817 185.962 9.02305 186.746 8.53162C187.918 7.79677 189.746 5.39372 190.161 4.04379C190.481 3.00094 190.423 2.79412 189.559 1.90708C189.033 1.36704 188.495 0.909743 188.363 0.891101C188.231 0.872367 187.783 0.799865 187.368 0.729511Z" fill="white"/>
</svg>
