<svg width="205" height="28" viewBox="0 0 205 28" fill="none" xmlns="http://www.w3.org/2000/svg">
<path fill-rule="evenodd" clip-rule="evenodd" d="M187.368 0.729511C183.828 0.131585 176.708 0.0345346 156.386 0.308329C141.752 0.505356 135.415 0.781845 120.831 1.85914C99.1198 3.46313 87.6776 4.99624 63.3899 9.55575C58.48 10.4775 50.7867 11.8056 46.2937 12.5072C27.3253 15.4693 5.58358 21.0984 4.91475 23.2209C4.8241 23.509 4.86281 23.7821 5.00094 23.8276C5.13906 23.873 6.95264 23.3167 9.0313 22.5917C12.5631 21.3595 15.5827 20.5134 15.5014 20.7785C15.4819 20.8421 14.475 21.2143 13.2634 21.6057C12.0522 21.9969 9.21214 22.9883 6.95253 23.8084C4.69283 24.6288 2.26308 25.4478 1.55258 25.6289C0.243926 25.9623 -0.365888 26.6894 0.440647 26.9546C1.24834 27.2202 4.76262 26.4495 9.67188 24.9297C15.0749 23.2576 34.7176 18.2387 41.8281 16.7137C49.1758 15.1378 56.788 13.8466 61.7425 13.3357C89.2136 10.5032 100.56 9.90698 119.525 10.2993C145.857 10.8439 161.01 11.9846 180.793 14.9117C189.291 16.1689 197.07 17.5899 199.089 18.2539C200.151 18.603 200.656 18.5975 201.277 18.2295C202.414 17.5552 203.655 15.9316 204.072 14.5729C204.372 13.5958 204.316 13.302 203.717 12.6788C202.28 11.1861 201.499 11.0716 178.246 8.94024C159.228 7.19732 146.665 6.54808 129.441 6.41785C126.324 6.39409 123.671 6.33279 123.543 6.28131C123.145 6.1195 135.278 5.6232 141.445 5.54873C149.018 5.45726 166.379 5.93053 174.204 6.44183C179.98 6.81899 180.435 6.89586 183.109 7.94186C185.809 8.99817 185.961 9.02305 186.745 8.53162C187.917 7.79677 189.746 5.39372 190.16 4.04379C190.48 3.00094 190.422 2.79412 189.559 1.90708C189.033 1.36704 188.495 0.909742 188.363 0.891101C188.23 0.872364 187.783 0.799862 187.368 0.729511Z" fill="white"/>
</svg>
