<svg width="144" height="13" viewBox="0 0 144 13" fill="none" xmlns="http://www.w3.org/2000/svg">
<path fill-rule="evenodd" clip-rule="evenodd" d="M23.5568 0.0527069C23.0819 0.0716157 22.6935 0.126139 22.6935 0.17387C22.6935 0.221601 22.5251 0.260611 22.3193 0.260611C22.1136 0.260611 21.9891 0.296501 22.0427 0.340377C22.1218 0.404997 19.6028 1.2703 19.3354 1.2703C19.2933 1.2703 18.8951 1.39422 18.4507 1.54567C18.0063 1.69713 17.488 1.82104 17.2988 1.82104C17.1096 1.82104 16.6716 1.94331 16.3255 2.09265C15.9795 2.24208 15.592 2.366 15.4646 2.36802C15.3372 2.37013 15.1486 2.48395 15.0453 2.62108C14.9216 2.78557 14.8118 2.83284 14.7227 2.76024C14.5403 2.61099 13.7891 2.87397 13.7853 3.08839C13.7827 3.22222 13.758 3.2247 13.6063 3.1061C13.4549 2.98769 13.4296 2.99045 13.4273 3.1252C13.4258 3.21139 13.1063 3.45096 12.7172 3.65749C12.1507 3.95828 11.9075 4.02602 11.4948 3.99812C11.14 3.97407 10.8748 4.02272 10.6433 4.15425C10.4584 4.25935 10.3643 4.28937 10.4343 4.22099C10.5213 4.1358 10.4119 4.14618 10.0862 4.25403C9.82488 4.3405 9.65604 4.44807 9.7111 4.49296C9.76599 4.53794 9.65149 4.57474 9.4563 4.57474C9.2611 4.57474 9.061 4.62817 9.01138 4.69343C8.96177 4.75869 8.44179 4.99588 7.85603 5.2204C7.27008 5.44501 6.52438 5.75957 6.19869 5.91938C4.80543 6.6034 3.49741 7.11724 3.20771 7.09466C2.7697 7.06042 1.30756 7.73654 0.583672 8.30803C-0.10587 8.85244 -0.160938 8.98067 0.294697 8.98067C0.708895 8.98067 1.11728 9.62072 0.964974 10.0309C0.87083 10.2843 0.913177 10.34 1.23214 10.382C1.4406 10.4096 1.61108 10.4797 1.61108 10.5379C1.61108 10.5961 1.52929 10.6182 1.42933 10.587C1.32719 10.5551 1.25322 10.6231 1.26031 10.7422C1.27576 10.999 1.57782 11.3902 1.60108 11.1836C1.6149 11.0617 1.63634 11.0616 1.7881 11.1829C1.92459 11.2919 2.00547 11.2965 2.18503 11.2058C2.35642 11.1193 2.35823 11.0918 2.19266 11.0918C2.07271 11.0918 1.97457 11.0505 1.97457 11C1.97457 10.9496 2.17903 10.9083 2.42893 10.9083C2.67883 10.9083 2.8833 10.9469 2.8833 10.9941C2.8833 11.1867 2.52417 11.5222 2.01128 11.809C1.37754 12.1633 1.09965 12.6088 1.61344 12.4467C1.78355 12.393 1.92314 12.2831 1.92368 12.2024C1.92586 11.8929 1.98293 11.8335 2.23138 11.8817C2.38459 11.9113 2.51344 11.8647 2.55125 11.7659C2.59159 11.6597 2.77697 11.5996 3.06686 11.5984C3.39037 11.5971 3.51959 11.5465 3.52013 11.4206C3.52068 11.3238 3.62282 11.2274 3.74731 11.2065C3.87181 11.1855 3.97377 11.128 3.97377 11.0788C3.97377 11.0295 3.89762 11.013 3.80456 11.042C3.53976 11.1247 3.40563 10.9397 3.65771 10.8395C3.78148 10.7903 4.10771 10.7228 4.38269 10.6897C4.65749 10.6566 4.88249 10.5864 4.88249 10.5339C4.88249 10.4814 4.78035 10.4695 4.65531 10.5074C4.50101 10.5542 4.5081 10.5266 4.67749 10.421C4.96537 10.2419 5.33286 10.2093 5.13457 10.3805C5.06151 10.4436 5.17947 10.4165 5.39647 10.3203C5.83284 10.127 5.9159 10.0358 5.56404 10.1361C5.38902 10.186 5.38575 10.1741 5.54986 10.0844C5.66691 10.0204 5.72216 9.90077 5.67236 9.81853C5.59893 9.697 5.6202 9.69902 5.7865 9.82973C6.0364 10.026 6.36535 10.0433 6.2205 9.85267C6.16289 9.77695 6.20633 9.71499 6.31701 9.71499C6.42769 9.71499 6.5182 9.63238 6.5182 9.53141C6.5182 9.43044 6.57963 9.35434 6.65451 9.36242C6.93676 9.39262 7.42693 9.23153 7.42693 9.10853C7.42693 9.03822 7.50871 8.98067 7.60867 8.98067C7.70863 8.98067 7.79042 9.02362 7.79042 9.07604C7.79042 9.12845 7.96944 9.08724 8.18808 8.98434C8.40672 8.88144 8.81565 8.74578 9.09681 8.68299C9.37796 8.62012 9.60787 8.54007 9.60787 8.50501C9.60787 8.46995 9.77144 8.44755 9.97136 8.45517C10.1713 8.46279 10.3361 8.5118 10.3376 8.56421C10.3392 8.61654 10.4197 8.59744 10.5166 8.52172C10.6682 8.40322 10.6933 8.40579 10.6956 8.54007C10.6971 8.6259 10.5866 8.72916 10.4499 8.76955C10.2841 8.81857 10.2496 8.90411 10.3461 9.02656C10.4259 9.12753 10.4968 9.15856 10.5039 9.0954C10.5221 8.93147 10.9955 8.95377 11.4233 9.13873C11.8731 9.33332 11.8897 9.43916 11.4708 9.44099C11.2009 9.44219 11.1938 9.4555 11.4239 9.52902C11.5943 9.58345 11.7596 9.5829 11.8691 9.52755C12.1665 9.37738 12.356 9.4309 12.165 9.61117C12.0651 9.70544 12.0256 9.80402 12.0774 9.83009C12.129 9.85625 11.8893 9.96567 11.5445 10.0733C10.9237 10.2671 10.3349 10.6282 10.3349 10.8151C10.3349 10.8684 10.7643 10.7868 11.289 10.6338C11.8139 10.4809 12.2228 10.3148 12.1977 10.2648C12.1728 10.2149 12.2799 10.1739 12.4356 10.1739C12.5914 10.1739 12.675 10.138 12.621 10.0939C12.5672 10.0499 12.8824 9.94465 13.3213 9.85992C13.7602 9.77529 14.1686 9.64137 14.2286 9.56243C14.3167 9.4465 14.3894 9.44072 14.6081 9.53232C14.7567 9.59465 14.8785 9.60622 14.8785 9.55793C14.8785 9.50965 14.9921 9.47018 15.1309 9.47018C15.4168 9.47018 16.739 9.17031 16.8777 9.07402C16.9277 9.03932 17.1321 8.96405 17.332 8.90678C17.6214 8.82389 17.6352 8.80214 17.3997 8.79984C17.237 8.79837 17.0029 8.85859 16.8793 8.93376C16.7557 9.00894 16.5878 9.0496 16.5062 9.02408C16.4244 8.99857 16.3065 9.0194 16.2439 9.07044C16.0733 9.21005 15.4237 9.36765 15.4237 9.26953C15.4237 9.2229 16.0985 9.00453 16.9231 8.78433C18.814 8.27948 18.842 8.27407 18.5134 8.47509C18.2511 8.63554 18.2633 8.63599 18.8314 8.48766C19.4328 8.33061 19.6446 8.20899 19.1495 8.30491C18.7126 8.38963 18.8356 8.25094 19.2858 8.15134C19.5106 8.1015 20.0219 7.95712 20.4217 7.83035C20.8216 7.70359 21.2428 7.57729 21.3579 7.54966C21.4731 7.52194 21.6114 7.41418 21.6652 7.31009C21.7541 7.13862 21.7897 7.13431 22.0469 7.2641C22.2688 7.37618 22.2902 7.46127 22.1452 7.65375C21.9904 7.85963 22.0051 7.8913 22.2357 7.84669C22.3877 7.81723 22.5118 7.83531 22.5118 7.8868C22.5118 7.93839 22.7571 8.02376 23.057 8.07654C23.6593 8.18255 23.7226 8.296 23.3269 8.56008C23.1363 8.6874 23.117 8.76891 23.2575 8.85436C23.3644 8.91944 23.4042 9.01151 23.3462 9.05896C23.1821 9.19298 23.4452 9.72554 23.6997 9.77483C23.8247 9.79907 24.3113 9.63036 24.7809 9.39978C25.2505 9.1693 25.7091 8.98067 25.7999 8.98067C26.0449 8.98067 25.9998 9.1335 25.7121 9.2788C25.5373 9.3671 25.5124 9.45421 25.6311 9.56142C25.8148 9.72719 25.6963 9.89857 25.3983 9.89857C25.2983 9.89857 25.2792 9.84698 25.3557 9.78383C25.437 9.71692 25.3089 9.73105 25.0484 9.8177C24.5097 9.99706 24.3547 10.2657 24.7898 10.2657C24.9864 10.2657 25.0579 10.2168 24.9904 10.128C24.933 10.0523 24.9623 9.99036 25.0555 9.99036C25.295 9.99036 25.6153 10.3189 25.4588 10.4042C25.1264 10.5856 26.3708 10.329 26.8017 10.1273C27.0703 10.0015 27.4009 9.89857 27.5363 9.89857C27.6717 9.89857 27.7824 9.85726 27.7824 9.80678C27.7824 9.75629 27.9051 9.71499 28.055 9.71499C28.205 9.71499 28.3276 9.67368 28.3276 9.6232C28.3276 9.57271 28.4503 9.53141 28.6003 9.53141C28.7502 9.53141 28.8729 9.49469 28.8729 9.44981C28.8729 9.40501 29.1591 9.34113 29.509 9.30799C29.8897 9.27192 30.1451 9.19408 30.1451 9.11422C30.1451 9.04079 30.2132 8.98067 30.2965 8.98067C30.3799 8.98067 30.4481 9.10275 30.4481 9.252C30.4481 9.4163 30.3703 9.50369 30.2511 9.47349C30.1429 9.44613 30.2274 9.49956 30.439 9.59226C30.6507 9.68497 30.8637 9.84579 30.9126 9.9496C30.9891 10.1123 30.9299 10.1329 30.4824 10.0998C29.9933 10.0635 29.7667 10.1935 30.1242 10.3051C30.3519 10.3762 31.4366 10.1721 31.3233 10.0796C31.2032 9.98145 31.4066 9.91977 32.0427 9.86148C32.3228 9.83587 32.7924 9.67882 33.0865 9.5125C33.3803 9.34617 33.7006 9.21014 33.798 9.21014C33.8954 9.21014 34.0455 9.1525 34.1319 9.082C34.218 9.0116 34.4114 8.97773 34.5617 9.00683C34.7365 9.04079 34.8694 8.99278 34.9312 8.87327C34.9868 8.76606 35.1136 8.71365 35.2301 8.75C35.4144 8.80755 37.5243 8.30931 39.0208 7.85495L39.6269 7.67091L39.566 7.88983C39.5121 8.08333 39.5682 8.10554 40.0502 8.08158C40.3501 8.06671 40.5137 8.08737 40.4137 8.12748C40.3137 8.16759 40.232 8.26241 40.232 8.33814C40.232 8.41506 40.0862 8.46976 39.9017 8.46205C39.7202 8.45453 39.6111 8.46829 39.6595 8.49262C39.7078 8.51704 39.5875 8.61773 39.3923 8.71631C38.9557 8.93679 39.1039 9.11367 39.6106 8.97663C40.0299 8.86336 40.3881 8.94597 40.2523 9.12469C40.1998 9.19371 40.2365 9.27495 40.3337 9.30533C40.431 9.33571 40.4691 9.39427 40.4186 9.43558C40.3681 9.47679 40.4501 9.56225 40.6007 9.6254C40.8259 9.71985 41.1736 9.67451 42.5525 9.37114C43.4754 9.1681 44.4299 8.96313 44.6736 8.91568C44.9175 8.86822 45.0402 8.80544 44.9463 8.77625C44.8525 8.74697 44.2031 8.86244 43.5034 9.0329C42.1367 9.36563 41.9585 9.39253 41.9585 9.26604C41.9585 9.22097 42.2857 9.11808 42.6855 9.0373C43.0854 8.95643 43.4125 8.86694 43.4125 8.8383C43.4125 8.80966 43.3307 8.81177 43.2308 8.84298C42.9727 8.92357 43.0161 8.78084 43.3091 8.58569C43.4718 8.47738 43.5824 8.45783 43.6295 8.52915C43.6788 8.60378 43.7994 8.58854 44.013 8.48069C44.1844 8.39413 44.2782 8.28536 44.2213 8.23891C44.1646 8.19256 44.2095 8.15456 44.3212 8.15456C44.433 8.15456 44.4786 8.11711 44.4226 8.0713C44.3665 8.02559 44.5048 8.011 44.73 8.03899C44.955 8.06699 45.0789 8.05689 45.0055 8.0165C44.7947 7.90067 45.8006 7.67174 46.0244 7.78473C46.3039 7.92591 46.8849 7.89883 47.2602 7.72727C47.4431 7.64374 47.5926 7.6197 47.5926 7.67385C47.5926 7.72801 47.6423 7.8377 47.703 7.91755C47.7637 7.99741 47.7326 8.06277 47.6341 8.06277C47.3502 8.06277 45.3794 8.53594 45.4708 8.58211C45.516 8.60506 45.9867 8.51814 46.5165 8.38899C47.0465 8.25993 47.5258 8.18944 47.5817 8.2323C47.6377 8.27526 47.8062 8.31133 47.9561 8.31262C48.5179 8.31712 48.7851 8.39137 49.1813 8.65316C49.5448 8.89328 49.5593 8.93844 49.3176 9.07337C48.9574 9.27439 48.9757 9.34002 49.3774 9.28697C49.5593 9.26292 49.8081 9.30414 49.9304 9.37858C50.122 9.49515 50.2312 9.47771 50.7197 9.25227C51.0316 9.10835 51.335 8.99333 51.3935 8.99655C51.4522 8.99976 51.5411 8.99444 51.591 8.9847C52.0992 8.88576 52.4849 8.91228 52.5568 9.05107C52.6066 9.14708 52.6477 9.11009 52.6604 8.95772C52.6741 8.79424 52.7818 8.7053 52.9663 8.7053C53.1779 8.7053 53.2189 8.65206 53.1255 8.49877C53.0564 8.38513 53.0614 8.32161 53.1364 8.35741C53.2115 8.3933 53.5633 8.36136 53.9181 8.28646C54.3579 8.19366 54.6226 8.18026 54.7492 8.24424C54.9835 8.36255 55.2836 8.36769 55.1407 8.25103C55.0064 8.14116 56.2154 8.02036 56.5145 8.11371C56.6477 8.15529 56.6892 8.14464 56.6187 8.087C56.5018 7.99145 57.5138 7.69827 57.9796 7.69267C58.1144 7.69111 58.3836 7.62915 58.5775 7.55498C58.7716 7.48091 59.0782 7.42024 59.2591 7.42024C59.4399 7.42024 59.5878 7.37452 59.5878 7.31862C59.5878 7.26272 59.7105 7.24079 59.8605 7.26988C60.0104 7.29889 60.1331 7.27824 60.1331 7.22399C60.1331 7.16965 60.2532 7.14854 60.3999 7.1769C60.5465 7.20536 60.7092 7.19388 60.7612 7.15147C60.8132 7.10898 61.2366 7.04536 61.7024 7.01012C62.1681 6.97487 62.6802 6.9108 62.8405 6.86775C63.0008 6.82479 63.3976 6.74778 63.7225 6.69665C64.2298 6.6168 64.3127 6.6257 64.3092 6.75953C64.3036 6.97524 63.7487 7.30559 63.3287 7.34313C63.1317 7.36076 62.9027 7.49404 62.8016 7.64971C62.7033 7.80116 62.5448 7.95087 62.4491 7.98245C62.344 8.01705 62.3584 8.06579 62.4852 8.10536C62.619 8.14712 62.6335 8.20954 62.5256 8.27746C62.2515 8.44957 62.6137 8.79571 63.0806 8.80792C63.3087 8.81398 63.5566 8.81398 63.6317 8.80792C63.7067 8.80195 63.768 8.86822 63.768 8.95524C63.768 9.08512 63.8183 9.07695 64.051 8.90935C64.3516 8.69245 64.7745 8.62718 64.6291 8.82003C64.5816 8.88319 64.6145 9.03244 64.7023 9.15176C64.8168 9.30726 64.9261 9.34333 65.0874 9.27917C65.2114 9.22988 65.5378 9.16241 65.8126 9.12928C66.0874 9.09614 66.3124 9.0284 66.3124 8.97892C66.3124 8.92936 66.5198 8.88888 66.7731 8.88888C67.0267 8.88888 67.4312 8.82361 67.6724 8.74376C68.0624 8.6147 68.4343 8.55072 68.9217 8.52878C69.0073 8.52484 69.0304 8.45976 68.9728 8.38403C68.9154 8.3083 68.9406 8.24635 69.0291 8.24635C69.1176 8.24635 69.2223 8.29536 69.262 8.35539C69.3092 8.4269 69.4595 8.40092 69.7 8.27948C70.301 7.97593 70.6861 7.94463 71.1441 8.1619C71.5283 8.3441 71.5957 8.34842 72.0986 8.22165C72.6195 8.09039 72.6428 8.09352 72.7231 8.30573C72.7689 8.4269 72.7344 8.54861 72.6462 8.57615C72.5579 8.60369 72.5276 8.66032 72.5786 8.70199C72.6297 8.74376 72.5492 8.80149 72.3998 8.8305C72.0474 8.89879 72.0481 9.07246 72.4009 9.07246C72.5508 9.07246 72.6708 9.12414 72.6675 9.18719C72.6591 9.34618 72.0261 9.71499 71.7617 9.71499C71.6397 9.71499 71.5917 9.77759 71.6525 9.85745C71.7144 9.93914 71.6839 9.97595 71.581 9.94382C71.4822 9.91298 71.4013 9.93593 71.4013 9.99476C71.4013 10.0536 71.2922 10.0807 71.159 10.0548C71.0256 10.029 70.9166 10.0641 70.9166 10.1327C70.9166 10.2015 70.9729 10.24 71.042 10.2185C71.3324 10.1279 72.2297 9.9619 72.3554 9.97558C72.4303 9.98366 72.665 9.90288 72.8767 9.79595C73.1095 9.67836 73.3072 9.63871 73.377 9.6958C73.5308 9.82156 74.5262 9.72086 74.4342 9.58878C74.3948 9.53196 74.2072 9.49974 74.0177 9.51718C73.7214 9.54435 73.7338 9.52204 74.1055 9.35847C74.3434 9.25374 74.6075 9.18976 74.6923 9.21629C74.7774 9.24282 75.0073 9.22116 75.2032 9.16829C75.456 9.0999 75.5956 9.10146 75.6839 9.17379C75.7713 9.24511 75.8604 9.23832 75.9814 9.15112C76.1165 9.05382 76.1746 9.0518 76.247 9.14185C76.3491 9.26925 77.185 9.07154 77.7913 8.77643C77.9703 8.68942 78.3309 8.59102 78.5929 8.55779C78.9443 8.51327 79.005 8.47692 78.8247 8.41919C78.6573 8.36567 78.7522 8.33924 79.1255 8.33538L79.6707 8.32988L79.1255 8.20008L78.5802 8.07029L79.082 8.12261C79.4911 8.1653 79.5631 8.14767 79.4715 8.02706C79.4097 7.94573 79.443 7.87919 79.5453 7.87919C79.6476 7.87919 79.7725 7.93086 79.823 7.99392C79.8962 8.08571 79.9175 8.08571 79.9289 7.99392C79.9368 7.93086 80.0865 7.87854 80.2614 7.87781C80.46 7.87689 80.5033 7.8511 80.3768 7.80897C80.2652 7.77188 80.1167 7.64861 80.0465 7.53507C79.9435 7.36828 80.0086 7.31137 80.3855 7.23904C80.6421 7.18975 80.852 7.10778 80.852 7.05693C80.852 7.00608 80.5652 7.04582 80.2147 7.14523C79.8641 7.24473 79.5164 7.33239 79.4422 7.34019C79.2196 7.36342 78.4083 7.6386 78.2649 7.73939C78.1148 7.84504 78.0973 7.82879 78.0359 7.52745C78.0015 7.35892 78.0644 7.32294 78.332 7.35828C78.5188 7.38297 78.6315 7.3703 78.5824 7.33028C78.4515 7.22325 78.8816 7.0707 79.465 7.01728C79.7454 6.99158 80.07 6.93375 80.1863 6.88868C80.6823 6.69656 81.9169 6.50931 81.987 6.6156C82.1021 6.79001 83.3112 6.57145 83.2803 6.38191C83.2665 6.29663 83.3687 6.22696 83.5075 6.22696C83.6464 6.22696 83.76 6.2914 83.76 6.37007C83.76 6.4547 83.8456 6.48646 83.9693 6.44781C84.0844 6.41192 84.2999 6.46112 84.4481 6.55713C84.7079 6.72557 84.7134 6.72566 84.5991 6.55934C84.4964 6.41018 84.5507 6.39402 85.0024 6.43964C85.2941 6.46911 85.6163 6.44598 85.7326 6.38723C85.8471 6.3294 85.9409 6.31729 85.9409 6.36034C85.9409 6.40339 86.1045 6.34335 86.3044 6.22696C86.5043 6.11058 86.6679 6.06193 86.6679 6.11884C86.6679 6.19208 86.8044 6.19622 87.1341 6.13288C87.7087 6.02255 87.7584 6.02218 87.7584 6.12792C87.7584 6.17437 87.513 6.23963 87.2131 6.27286C86.9132 6.30609 86.6679 6.3675 86.6679 6.40926C86.6679 6.45102 86.8442 6.46186 87.0597 6.4334C87.3283 6.39788 87.4109 6.41504 87.3216 6.48783C87.1531 6.62561 87.4416 6.62561 87.7144 6.48783C87.8736 6.40742 87.9908 6.40935 88.1973 6.49591C88.4372 6.59642 88.4272 6.63341 88.1142 6.80304C87.6406 7.05978 87.6448 7.26722 88.1218 7.19076C88.399 7.14633 88.4853 7.17424 88.4853 7.30825C88.4853 7.40491 88.6489 7.57922 88.8488 7.69561C89.2456 7.92664 89.3146 8.01375 89.0306 7.92508C88.9306 7.89387 88.8488 7.91214 88.8488 7.96556C88.8488 8.01898 88.9448 8.06277 89.0622 8.06277C89.1796 8.06277 89.0836 8.16603 88.8488 8.29224C88.614 8.41845 88.4772 8.52686 88.5446 8.53319C88.612 8.53952 88.7489 8.55494 88.8488 8.56761C88.9488 8.58028 89.126 8.5957 89.2427 8.60203C89.4984 8.61589 89.2648 8.75119 88.9851 8.75119C88.8768 8.75119 88.7503 8.80856 88.7042 8.87869C88.6576 8.949 88.7027 8.98039 88.8047 8.94854C88.9061 8.91687 89.0318 8.97305 89.0838 9.07347C89.1789 9.25732 89.7576 9.33525 89.7576 9.16425C89.7576 9.11376 89.8802 9.07246 90.0302 9.07246C90.1801 9.07246 90.3028 9.03574 90.3028 8.99086C90.3028 8.94597 90.4051 8.91118 90.53 8.91357C91.1177 8.92458 91.3933 8.87906 91.3933 8.77102C91.3933 8.70612 91.659 8.57193 91.9839 8.4727C92.6364 8.27333 93.756 8.1395 93.756 8.26076C93.756 8.30335 93.6734 8.33814 93.5728 8.33814C93.4624 8.33814 93.4775 8.40946 93.6106 8.51703C93.7749 8.64995 93.8923 8.6706 94.0666 8.59763C94.2143 8.53567 94.3012 8.53319 94.3012 8.59102C94.3012 8.70493 93.7581 8.94184 93.7505 8.83123C93.7474 8.78726 93.6625 8.8226 93.5619 8.9098C93.429 9.025 93.459 9.13019 93.6713 9.29376C93.8919 9.46385 93.9168 9.56326 93.7727 9.6992C93.628 9.83569 93.6469 9.90655 93.8506 9.99192C94.0691 10.0835 94.1195 10.0767 94.1195 9.95566C94.1195 9.868 94.2688 9.80678 94.4829 9.80678C94.6829 9.80678 94.849 9.75519 94.8522 9.69204C94.8561 9.61448 94.9297 9.62347 95.0794 9.71958C95.2603 9.83587 95.4209 9.84423 95.9567 9.76547C96.3175 9.71251 96.734 9.61769 96.8827 9.5549C97.0314 9.49212 97.418 9.41392 97.7418 9.38124C98.0659 9.34847 98.3714 9.26824 98.4212 9.20289C98.4708 9.13754 98.6273 9.10651 98.769 9.13396C98.9253 9.16425 99.0266 9.12597 99.0266 9.03638C99.0266 8.86189 99.3201 8.83931 99.4515 9.00361C99.5062 9.07218 99.5489 9.05364 99.5575 8.95772C99.5673 8.84858 99.7205 8.79709 100.036 8.79709C100.292 8.79709 100.844 8.71815 101.263 8.62168C101.682 8.5252 102.074 8.45287 102.134 8.46104C102.193 8.46921 102.357 8.43176 102.497 8.37788C102.637 8.324 103.243 8.20008 103.843 8.10251C104.443 8.00494 105.04 7.85284 105.171 7.76445C105.431 7.58858 105.751 7.55058 105.751 7.69561C105.751 7.74609 105.608 7.79153 105.433 7.79658C105.221 7.80263 105.266 7.83017 105.569 7.87919C105.955 7.9416 105.969 7.955 105.66 7.96831L105.297 7.98392L105.66 8.06277C105.905 8.11591 105.935 8.14418 105.751 8.14951C105.509 8.15648 105.509 8.16722 105.75 8.24414C105.983 8.31858 105.971 8.35053 105.659 8.4693C105.459 8.54558 105.399 8.60901 105.524 8.61057C105.649 8.61222 105.751 8.67198 105.751 8.74348C105.751 8.81499 105.997 8.92853 106.298 8.99581C106.6 9.06309 106.81 9.16516 106.766 9.22263C106.718 9.28651 106.821 9.30937 107.033 9.28137C107.315 9.2441 107.343 9.20252 107.186 9.05447C107.08 8.95478 107.041 8.84913 107.1 8.81985C107.158 8.79048 107.205 8.81471 107.205 8.87355C107.205 8.93248 107.287 8.98067 107.387 8.98067C107.487 8.98067 107.569 8.92018 107.569 8.84619C107.569 8.7723 107.732 8.66757 107.932 8.61351C108.132 8.55944 108.296 8.47931 108.296 8.43525C108.296 8.34098 107.577 8.41726 107.251 8.54622C107.126 8.59561 107.024 8.59992 107.024 8.55586C107.026 8.43782 108.083 8.15456 108.522 8.15456C108.731 8.15456 108.846 8.12638 108.777 8.09186C108.709 8.05735 108.919 7.97272 109.243 7.90379C109.723 7.80181 109.783 7.76105 109.564 7.68514C109.359 7.61382 109.392 7.60547 109.704 7.64989C110.011 7.69349 110.113 7.66972 110.113 7.55425C110.113 7.45539 110.21 7.41941 110.386 7.45346C110.536 7.48247 110.658 7.46916 110.658 7.42372C110.658 7.37618 110.884 7.37388 111.192 7.41849C111.617 7.48008 111.705 7.46953 111.627 7.36617C111.568 7.28925 111.642 7.23666 111.807 7.23666C111.961 7.23666 112.113 7.14698 112.145 7.03729C112.211 6.81002 112.657 6.69051 112.657 6.90006C112.657 6.97579 112.555 7.05592 112.43 7.07804C112.305 7.10016 112.428 7.11907 112.703 7.12008C112.978 7.12109 113.203 7.07749 113.203 7.02324C113.203 6.95495 113.265 6.95605 113.405 7.02673C113.689 7.17029 113.472 7.30412 112.842 7.37397C112.38 7.42519 112.313 7.47035 112.364 7.69267C112.419 7.93132 112.365 7.95684 111.677 8.01623C111.058 8.06983 110.993 8.09379 111.294 8.15713C111.816 8.26672 112.336 8.26314 112.199 8.15088C112.123 8.08893 112.247 8.07635 112.554 8.11518C112.938 8.16392 113.004 8.14767 112.913 8.02706C112.761 7.82769 113.137 7.83806 113.372 8.03982C113.498 8.14804 113.605 8.16759 113.699 8.09957C113.776 8.04413 113.961 7.99585 114.111 7.99227C114.261 7.98869 114.568 7.96409 114.793 7.93775C115.018 7.91131 115.202 7.93307 115.202 7.98603C115.202 8.03908 115.077 8.05827 114.925 8.02871C114.704 7.98603 114.685 8.00944 114.828 8.14455C115.058 8.36145 114.864 8.46233 114.502 8.31436C114.278 8.22276 114.251 8.22367 114.365 8.31923C114.444 8.38541 114.401 8.50226 114.268 8.58322C114.054 8.71328 114.111 8.72145 114.816 8.66133L115.603 8.59423L115.483 8.87052C115.412 9.03216 115.442 9.17168 115.555 9.20684C115.661 9.23988 115.747 9.20004 115.747 9.11835C115.747 9.03666 115.829 8.99535 115.929 9.02656C116.029 9.05777 116.111 9.04391 116.111 8.99581C116.111 8.94771 116.295 8.90925 116.52 8.91036C117.329 8.9143 117.926 8.84711 117.905 8.75413C117.86 8.54494 117.938 8.42993 118.124 8.42993C118.249 8.42993 118.275 8.53374 118.196 8.71677C118.109 8.91623 118.132 8.98452 118.272 8.94083C118.383 8.90632 118.48 8.78754 118.489 8.67693C118.502 8.50933 118.53 8.51915 118.659 8.73605C118.844 9.0474 118.716 9.26219 118.385 9.19793C118.253 9.17232 117.795 9.23694 117.366 9.3414C116.938 9.44595 116.362 9.53141 116.086 9.53141C115.809 9.53141 115.518 9.58309 115.438 9.64633C115.358 9.70948 115.06 9.82183 114.776 9.8959C114.492 9.96998 114.349 10.0457 114.459 10.0642C114.569 10.0827 114.615 10.1338 114.561 10.1778C114.507 10.2218 114.323 10.2323 114.151 10.2012C113.979 10.1701 113.9 10.1784 113.973 10.2197C114.048 10.261 114.015 10.3512 113.902 10.4201C113.789 10.4891 113.748 10.5719 113.812 10.6042C113.98 10.689 114.878 10.464 114.759 10.3668C114.704 10.3218 114.785 10.2605 114.94 10.2305C115.099 10.1996 115.173 10.215 115.111 10.2657C115.051 10.315 115.108 10.3387 115.238 10.3182C115.368 10.2978 115.703 10.2557 115.982 10.2248C116.299 10.1896 116.441 10.1293 116.361 10.0639C116.276 9.99485 116.335 9.97898 116.533 10.0173C116.705 10.0506 116.815 10.0333 116.79 9.97705C116.766 9.92289 117.07 9.82036 117.465 9.74922C117.86 9.67818 118.245 9.56904 118.322 9.50681C118.398 9.44467 118.606 9.39079 118.785 9.38721C119.191 9.37894 120.109 9.15764 120.109 9.06796C120.109 9.03115 120.007 9.00683 119.882 9.0138C119.635 9.02766 119.564 8.96727 119.564 8.74578C119.564 8.66711 119.646 8.62819 119.746 8.6594C119.845 8.69061 119.927 8.67106 119.927 8.61608C119.927 8.561 119.801 8.49152 119.647 8.46169C119.164 8.36806 120.276 8.13115 121.381 8.09223C121.931 8.07286 122.485 8.05148 122.613 8.04459C122.901 8.02917 122.807 7.85918 122.48 7.80419C122.337 7.77996 122.291 7.80548 122.366 7.86725C122.444 7.93114 122.354 7.97098 122.13 7.97098C121.93 7.97098 121.719 7.93252 121.662 7.88552C121.538 7.78428 121.803 7.68918 122.608 7.54654C123.089 7.46127 123.199 7.4653 123.199 7.56875C123.199 7.63851 123.101 7.69561 122.982 7.69561C122.863 7.69561 122.914 7.7504 123.096 7.81741C123.401 7.93031 123.378 7.9506 122.785 8.09278C122.432 8.17723 121.967 8.24635 121.751 8.24635C121.219 8.24635 120.618 8.41781 120.755 8.53007C120.817 8.5801 121.014 8.59744 121.193 8.56862C121.388 8.53741 121.561 8.57 121.621 8.6494C121.732 8.79562 121.927 8.79039 122.744 8.61947C123.044 8.55678 123.447 8.48941 123.64 8.46986C123.832 8.45021 124.048 8.38669 124.119 8.3285C124.191 8.26966 124.35 8.2547 124.479 8.29463C124.631 8.34227 124.664 8.3296 124.575 8.25681C124.477 8.17732 124.582 8.16282 124.955 8.20422C125.35 8.24782 125.407 8.23827 125.198 8.16337C124.963 8.07892 124.969 8.06543 125.243 8.06414C125.418 8.06341 125.561 8.01871 125.561 7.96483C125.561 7.90856 125.716 7.89167 125.925 7.92508C126.153 7.96161 126.288 7.9416 126.288 7.87111C126.288 7.79878 126.411 7.81503 126.634 7.91691C126.981 8.07571 127.552 8.0858 127.767 7.93701C127.929 7.8242 129.306 7.84752 129.692 7.9696C129.97 8.05763 129.957 8.0635 129.592 8.01302C129.264 7.9674 129.149 7.99686 129.071 8.1463C129.017 8.25185 128.895 8.33814 128.801 8.33814C128.707 8.33814 128.684 8.38275 128.751 8.43736C128.821 8.49455 129.076 8.51125 129.352 8.47674C129.739 8.42855 129.788 8.43956 129.605 8.53356C129.297 8.6918 129.32 8.79709 129.661 8.79709C129.817 8.79709 129.894 8.83839 129.832 8.88888C129.771 8.93936 129.843 8.98067 129.993 8.98067C130.143 8.98067 130.321 8.93551 130.388 8.88025C130.456 8.82499 130.706 8.79865 130.944 8.82159C131.182 8.84463 131.377 8.82784 131.377 8.78433C131.377 8.74091 131.459 8.7053 131.559 8.7053C131.659 8.7053 131.741 8.76725 131.741 8.84298C131.741 9.00582 131.688 9.00178 132.424 8.8953C133.098 8.79764 133.202 8.90641 132.702 9.18554C132.438 9.33287 132.43 9.37123 132.651 9.43998C132.793 9.4845 132.994 9.48735 133.098 9.44632C133.201 9.40529 133.613 9.32011 134.013 9.25696C134.412 9.19371 134.817 9.10578 134.912 9.06135C135.14 8.95506 135.739 8.95754 135.739 9.06484C135.739 9.1111 135.637 9.17187 135.512 9.19986C135.387 9.22777 135.448 9.24153 135.648 9.23043C135.848 9.21923 136.066 9.17232 136.132 9.12597C136.198 9.07971 136.505 9.04189 136.814 9.04189C137.122 9.04189 137.375 9.01775 137.375 8.98829C137.375 8.95891 137.886 8.92917 138.511 8.92229C140.032 8.90558 141.01 8.80269 141.01 8.65931C141.01 8.5946 141.336 8.47573 141.735 8.39514C142.133 8.31455 142.77 8.08737 143.148 7.89029C143.73 7.58775 143.844 7.46246 143.882 7.08594C143.906 6.84067 143.954 6.52648 143.988 6.3876C144.029 6.22054 143.966 6.13518 143.802 6.13518C143.666 6.13518 143.554 6.17896 143.554 6.23238C143.554 6.2858 143.467 6.30242 143.361 6.26919C143.234 6.22963 143.279 6.1405 143.492 6.01135C143.671 5.90276 143.701 5.86559 143.558 5.92865C143.3 6.0432 142.846 6.09525 143.063 5.98547C143.126 5.95352 143.1 5.85365 143.004 5.76333C142.908 5.6731 142.891 5.58563 142.965 5.56892C143.039 5.55222 143.272 5.41389 143.483 5.26152C144.231 4.7206 143.31 4.23595 141.742 4.3449C141.239 4.37987 140.828 4.45028 140.828 4.5014C140.828 4.55299 140.97 4.56612 141.146 4.53087C141.321 4.4959 141.75 4.44936 142.1 4.42742C142.695 4.39006 142.683 4.39695 141.918 4.53316C141.469 4.61339 140.866 4.69655 140.579 4.71812C140.134 4.75153 140.091 4.7374 140.284 4.62009C140.573 4.44376 140.34 4.4467 139.352 4.63193C138.914 4.7139 138.415 4.77843 138.242 4.77549C138.069 4.77246 137.88 4.80872 137.822 4.85599C137.682 4.97073 137.193 4.96614 137.193 4.85011C137.193 4.79963 137.357 4.75832 137.557 4.75832C137.757 4.75832 137.92 4.72179 137.92 4.67727C137.92 4.54923 137.245 4.4936 137.027 4.60375C136.918 4.65846 136.83 4.67195 136.83 4.63376C136.83 4.59558 136.661 4.62404 136.454 4.6971C136.248 4.77007 135.921 4.8089 135.727 4.78338C135.479 4.75061 135.376 4.78384 135.376 4.89656C135.376 5.028 135.328 5.03599 135.103 4.9419C134.877 4.84727 134.83 4.85718 134.828 4.99955C134.826 5.10116 134.77 5.13108 134.691 5.07289C134.618 5.01873 134.409 4.94677 134.228 4.9129C134.047 4.87912 133.946 4.81276 134.004 4.76548C134.062 4.71821 133.965 4.53307 133.788 4.35399C133.516 4.07816 133.37 4.02712 132.831 4.01923C132.481 4.01409 131.936 4.00271 131.62 3.99399C131.303 3.98527 131.058 4.01941 131.074 4.0699C131.091 4.12038 130.878 4.15379 130.601 4.14416C130.278 4.13287 130.141 4.16242 130.219 4.22631C130.299 4.29221 130.178 4.3103 129.859 4.27955C129.595 4.25394 129.378 4.27156 129.378 4.31865C129.378 4.36574 129.194 4.39227 128.969 4.37758C128.744 4.36298 128.442 4.38795 128.298 4.4332C128.128 4.48672 128.011 4.47644 127.963 4.40356C127.91 4.32443 127.822 4.31975 127.66 4.38758C127.409 4.49278 126.667 4.56639 125.322 4.61954C124.663 4.64561 124.368 4.61431 124.127 4.49268C123.64 4.24669 123.247 4.19547 121.482 4.14728C120.588 4.12286 119.706 4.06256 119.524 4.01317C119.225 3.93249 119.22 3.90917 119.47 3.78269C119.766 3.63362 119.713 3.57699 118.706 2.95144C118.289 2.69314 117.036 2.63586 115.508 2.80558C114.89 2.87424 114.139 2.95116 113.839 2.97668C113.539 3.0021 113.056 3.06232 112.767 3.11042C111.993 3.23883 111.93 3.22479 111.93 2.92252C111.93 2.77107 112.012 2.64715 112.112 2.64715C112.406 2.64715 112.313 2.25044 111.972 2.04529C111.438 1.72411 110.752 1.62608 109.796 1.7343C109.329 1.78717 108.841 1.87446 108.713 1.92834C108.584 1.98223 108.315 2.00462 108.115 1.97819C107.914 1.95166 107.75 1.96745 107.75 2.01325C107.75 2.05896 107.623 2.09641 107.467 2.09641C107.307 2.09641 107.237 2.14047 107.307 2.19738C107.397 2.27072 107.329 2.27072 107.057 2.19738C106.51 2.04951 106.168 2.07374 106.58 2.23116C106.992 2.38867 106.868 2.40721 106.226 2.28394C105.887 2.21886 105.789 2.22483 105.849 2.30689C105.893 2.36784 105.851 2.47964 105.755 2.55536C105.61 2.66927 105.517 2.67313 105.211 2.5773C104.927 2.48845 104.852 2.48753 104.887 2.57317C104.913 2.63449 104.852 2.69002 104.752 2.69654C104.652 2.70305 104.34 2.75657 104.058 2.8155C103.431 2.94666 103.207 2.9507 103.207 2.83073C103.207 2.78025 103.127 2.73894 103.031 2.73894C102.934 2.73894 102.908 2.81127 102.974 2.89958C103.08 3.04277 103.058 3.04589 102.773 2.9284C102.506 2.81889 102.426 2.81752 102.301 2.92014C102.218 2.98797 102.195 3.10922 102.251 3.18954C102.322 3.29271 102.292 3.30822 102.15 3.24259C102.002 3.17458 102.011 3.05617 102.184 2.80246C102.386 2.50626 102.4 2.27687 102.259 1.57734C102.247 1.51905 102.128 1.49253 101.995 1.51832C101.862 1.5442 101.753 1.5297 101.753 1.4861C101.753 1.13445 97.7282 1.1171 96.4474 1.46324C96.2595 1.5141 95.7813 1.56219 95.3851 1.57018C94.9889 1.57817 94.6647 1.62167 94.6647 1.66674C94.6647 1.7119 94.5389 1.72448 94.3852 1.69474C94.2225 1.66316 94.06 1.70071 93.9964 1.78442C93.9186 1.88676 93.849 1.89714 93.7551 1.8204C93.6393 1.72567 91.9952 1.93358 90.3028 2.25705C90.1529 2.28568 89.9666 2.30221 89.8888 2.29367C89.811 2.28522 89.7003 2.34039 89.6425 2.4163C89.5849 2.49221 89.4646 2.5315 89.375 2.5035C89.2856 2.4756 89.2123 2.48615 89.2121 2.527C89.2121 2.56785 89.0044 2.60732 88.7507 2.61475C88.4968 2.62209 88.0919 2.73573 87.8507 2.86717C87.6095 2.99862 87.2905 3.1061 87.1417 3.1061C86.9928 3.1061 86.8171 3.15025 86.7511 3.20413C86.6852 3.25811 86.5338 3.28335 86.4147 3.26022C86.2957 3.23718 86.0465 3.27435 85.8611 3.34283C85.6756 3.4113 85.4542 3.44563 85.3689 3.41902C85.2837 3.3924 85.2139 3.41443 85.2139 3.46785C85.2139 3.52127 85.1321 3.56505 85.0322 3.56505C84.9322 3.56505 84.8504 3.46271 84.8504 3.33769C84.8504 3.1989 84.6803 3.05406 84.4133 2.96566C83.951 2.81265 83.033 2.81421 82.8085 2.96842C82.7351 3.0189 82.6726 2.9776 82.6695 2.87663C82.6649 2.72435 82.6339 2.71655 82.4877 2.83073C82.3703 2.92252 82.3107 2.93014 82.3087 2.85368C82.3073 2.79062 82.1833 2.73894 82.0334 2.73894C81.8834 2.73894 81.7608 2.70131 81.7608 2.65523C81.7608 2.60924 81.6175 2.58547 81.4427 2.60236C81.2677 2.61925 81.0634 2.63623 80.9883 2.64008C80.9133 2.64403 80.852 2.70223 80.852 2.76951C80.852 2.83688 80.7499 2.89232 80.6249 2.89278C80.5 2.89324 80.1932 2.92298 79.9433 2.95878C79.4975 3.02257 79.4957 3.02092 79.8524 2.86901C80.1747 2.73178 80.1781 2.72086 79.883 2.77245C79.7 2.80448 79.4775 2.83073 79.389 2.83073C79.3003 2.83073 79.2748 2.89269 79.3323 2.96842C79.3899 3.04414 79.3465 3.1061 79.2358 3.1061C79.1251 3.1061 79.0346 3.0569 79.0346 2.99678C79.0346 2.93069 78.9446 2.94446 78.8074 3.03148C78.5586 3.18927 76.3477 3.58818 76.1185 3.51659C76.0401 3.49217 75.9475 3.51521 75.9127 3.56781C75.878 3.6204 75.3599 3.68227 74.7614 3.70531C74.0475 3.73275 73.5991 3.79792 73.4581 3.89476C73.3398 3.976 73.1557 4.01519 73.0492 3.98187C72.9425 3.94864 72.8552 3.96517 72.8552 4.01859C72.8552 4.07201 72.7827 4.11579 72.694 4.11579C72.4729 4.11579 72.3166 3.54192 72.5054 3.4226C72.7787 3.24994 72.4814 2.96144 71.8542 2.7909C71.5169 2.69911 71.2001 2.57051 71.1505 2.50506C71.0999 2.43861 70.9035 2.40666 70.7059 2.43282C70.5111 2.45852 70.2968 2.43457 70.2296 2.37958C70.0774 2.25539 68.4317 2.3313 67.0394 2.52682C65.4126 2.75528 63.7155 3.02808 63.1319 3.15503C62.4823 3.2962 60.5184 3.65684 60.3988 3.65684C60.3526 3.65684 60.3148 3.59489 60.3148 3.51916C60.3148 3.44343 60.4021 3.38147 60.5087 3.38147C60.624 3.38147 60.6529 3.30217 60.5802 3.18642C60.506 3.06829 60.5278 3.01321 60.6354 3.04681C60.9282 3.13823 61.5852 2.7942 61.4027 2.64513C61.3119 2.57078 61.3141 2.47321 61.408 2.41603C61.749 2.20858 61.3633 1.89723 60.5465 1.72044C60.1027 1.62434 59.5747 1.54567 59.3736 1.54567C58.7305 1.54567 57.1259 1.81783 55.8388 2.14524C55.152 2.32001 54.4922 2.46311 54.373 2.4633C54.2538 2.46348 53.861 2.55151 53.5005 2.65899L52.8445 2.85441L52.9716 2.59887C53.0577 2.42557 53.0168 2.31083 52.8445 2.24273C52.705 2.18747 52.5868 1.97736 52.5823 1.77579C52.5686 1.17264 51.673 1.06662 49.5918 1.42157C48.8425 1.54934 48.3732 1.63526 48.1379 1.68776C48.0879 1.69896 47.8596 1.73871 47.6306 1.77625C47.4016 1.8137 47.2444 1.89016 47.2815 1.94615C47.3789 2.09384 45.9137 2.5483 45.6611 2.4487C45.5415 2.40152 45.2572 2.40602 44.9795 2.45935C44.7174 2.50965 44.503 2.5248 44.503 2.49295C44.503 2.46119 44.3585 2.50121 44.1816 2.58198C44.005 2.66276 43.615 2.7506 43.3151 2.77731C43.0152 2.80402 42.2553 2.95171 41.6263 3.10564C40.9973 3.25948 40.4128 3.36367 40.3274 3.33696C40.242 3.31034 40.1305 3.34044 40.0797 3.40387C40.0073 3.49382 39.9488 3.49162 39.8134 3.39405C39.6669 3.2884 39.6246 3.2884 39.5413 3.39405C39.4743 3.47905 39.4383 3.46601 39.4285 3.35311C39.4206 3.26178 39.3443 3.20882 39.2589 3.23553C39.1737 3.26215 39.0124 3.18275 38.9009 3.05911C38.7306 2.8702 38.6101 2.84312 38.1479 2.88975C37.8258 2.92234 37.4882 2.89958 37.3338 2.83486C36.9591 2.67781 36.1043 2.90059 35.9413 3.19789C35.8721 3.3241 35.8074 3.37165 35.7974 3.30354C35.7839 3.21203 35.6033 3.23213 35.104 3.38101L34.4286 3.58222L34.1044 3.37982C33.892 3.24737 33.78 3.02276 33.78 2.72875C33.78 2.48193 33.7009 2.27999 33.6043 2.27999C33.5077 2.27999 33.1348 2.13157 32.7755 1.95019C32.2344 1.67693 32.0387 1.63113 31.6336 1.68336C31.3646 1.71805 30.9813 1.76285 30.7817 1.78286C30.5822 1.80287 30.3912 1.86115 30.3574 1.91246C30.3236 1.96378 30.2349 1.98682 30.1605 1.96359C30.0153 1.91825 28.5586 2.12129 28.0194 2.262C27.8391 2.30909 27.3851 2.37555 27.0107 2.40969C26.3786 2.46734 26.333 2.45669 26.3746 2.26118C26.4039 2.12312 26.3333 2.0597 26.1698 2.07723C26.0142 2.09384 25.9595 2.05244 26.0242 1.96717C26.0994 1.86813 26.0429 1.84647 25.8194 1.88878C25.5498 1.93973 25.5424 1.92752 25.7599 1.79231C25.976 1.65821 25.9675 1.63746 25.6951 1.63746C25.4882 1.63746 25.4172 1.58964 25.4871 1.49757C25.662 1.26746 25.3946 0.535982 25.1356 0.535982C24.9806 0.535982 24.9245 0.442356 24.9699 0.260611C25.0241 0.044354 24.9724 -0.011179 24.7294 0.00176341C24.5593 0.0108506 24.0317 0.0337982 23.5568 0.0527069ZM100.889 1.33107C100.765 1.35658 100.56 1.35658 100.435 1.33107C100.31 1.30564 100.412 1.2848 100.662 1.2848C100.912 1.2848 101.015 1.30564 100.889 1.33107ZM95.9029 1.42478C96.034 1.45131 96.1908 1.44801 96.2511 1.41753C96.3115 1.38706 96.2042 1.3654 96.0127 1.36934C95.801 1.37375 95.7579 1.3955 95.9029 1.42478ZM99.3901 1.82104C99.2401 1.86997 99.0357 1.90999 98.9357 1.90999C98.8357 1.90999 98.8766 1.86997 99.0266 1.82104C99.1765 1.77212 99.381 1.7321 99.4809 1.7321C99.5809 1.7321 99.54 1.77212 99.3901 1.82104ZM96.6639 2.37178C96.5139 2.42071 96.2277 2.45724 96.0278 2.45302C95.7283 2.44668 95.7443 2.43236 96.1186 2.37178C96.7613 2.26788 96.9823 2.26788 96.6639 2.37178ZM30.5086 2.86268C30.5086 2.93078 30.1785 3.06158 29.7749 3.15347C29.2642 3.26986 29.1124 3.34338 29.2751 3.39552C29.4038 3.43673 29.4272 3.47161 29.3272 3.47308C29.2273 3.47455 28.9694 3.49961 28.754 3.5288C28.4529 3.56964 28.3689 3.5433 28.3905 3.41498C28.4078 3.31144 28.7982 3.15145 29.4181 2.99384C30.5873 2.69654 30.5086 2.70599 30.5086 2.86268ZM94.4253 3.12336C94.3673 3.19652 94.3243 3.17476 94.3156 3.06783C94.3077 2.97108 94.3506 2.91692 94.411 2.9474C94.4713 2.97787 94.4779 3.05709 94.4253 3.12336ZM92.302 3.1061C92.302 3.15659 92.2153 3.19789 92.1095 3.19789C92.0037 3.19789 91.9676 3.15659 92.0294 3.1061C92.0912 3.05562 92.1777 3.01431 92.2218 3.01431C92.266 3.01431 92.302 3.05562 92.302 3.1061ZM91.7568 3.19789C91.7568 3.24838 91.6292 3.28968 91.4734 3.28968C91.3177 3.28968 91.2406 3.24838 91.3024 3.19789C91.3642 3.14741 91.4916 3.1061 91.5857 3.1061C91.6799 3.1061 91.7568 3.14741 91.7568 3.19789ZM98.1178 3.19789C98.1178 3.24838 98.0312 3.28968 97.9254 3.28968C97.8196 3.28968 97.7834 3.24838 97.8452 3.19789C97.907 3.14741 97.9935 3.1061 98.0377 3.1061C98.0819 3.1061 98.1178 3.14741 98.1178 3.19789ZM101.667 3.36376C101.611 3.39203 101.464 3.36385 101.341 3.30107C101.163 3.21038 101.184 3.19991 101.443 3.24966C101.622 3.28418 101.723 3.33549 101.667 3.36376ZM91.0298 3.33438C91.0298 3.37422 89.8155 3.65684 89.6445 3.65684C89.3942 3.65684 89.6496 3.45234 89.9847 3.38432C90.4355 3.2928 91.0298 3.26444 91.0298 3.33438ZM92.6655 3.38147C92.6655 3.43196 92.5788 3.47326 92.473 3.47326C92.3672 3.47326 92.3311 3.43196 92.3929 3.38147C92.4547 3.33099 92.5412 3.28968 92.5853 3.28968C92.6295 3.28968 92.6655 3.33099 92.6655 3.38147ZM68.2207 3.56772C67.9209 3.66951 67.5323 3.73505 67.3573 3.71339C67.1821 3.69172 67.079 3.70669 67.1279 3.7468C67.177 3.78682 67.0748 3.84446 66.9011 3.87484C65.8072 4.06641 64.9291 4.20501 64.8023 4.20621C64.4464 4.2096 64.9141 4.03245 65.4048 3.97802C65.7028 3.94488 66.0085 3.86622 66.0841 3.80316C66.2141 3.69457 67.906 3.40415 68.4934 3.38946C68.6433 3.38579 68.5206 3.46592 68.2207 3.56772ZM89.4491 3.80866C89.3979 3.87604 89.2797 3.90734 89.1865 3.87824C89.0935 3.84924 88.682 3.91367 88.2721 4.02153C87.8625 4.12938 87.4123 4.19538 87.272 4.16821C87.1077 4.13635 87.0356 4.17197 87.0695 4.26835C87.0984 4.35068 87.031 4.43421 86.9196 4.45404C86.8076 4.47387 86.7262 4.40163 86.7379 4.29267C86.754 4.1403 86.9947 4.05071 87.796 3.89908C88.3663 3.79113 88.9342 3.65134 89.058 3.58855C89.3245 3.45325 89.6009 3.60884 89.4491 3.80866ZM89.8203 4.16564C89.761 4.24357 89.6736 4.28762 89.626 4.26358C89.5784 4.23953 89.5933 4.17573 89.6592 4.12194C89.8384 3.97545 89.9431 4.0039 89.8203 4.16564ZM65.6603 4.26312C65.8199 4.29396 65.8889 4.36519 65.8164 4.42375C65.7446 4.48158 65.6838 4.58723 65.681 4.65864C65.6785 4.73005 65.3086 4.84975 64.8584 4.92483C64.4086 4.99982 63.9906 5.09987 63.9294 5.14706C63.8683 5.19433 63.7651 5.22838 63.7002 5.22287C63.6353 5.21737 63.1355 5.31604 62.5895 5.44216C62.0434 5.56828 61.3891 5.6978 61.1352 5.73001C60.8813 5.76214 60.5954 5.85623 60.4998 5.93893C60.3628 6.05743 60.3246 6.0611 60.3203 5.95618C60.3161 5.85265 60.2663 5.8476 60.0967 5.93324C59.9768 5.99382 59.7109 6.04173 59.506 6.0398C59.2327 6.03714 59.303 5.99666 59.7696 5.8878C60.1194 5.80611 60.4693 5.74617 60.5471 5.75452C60.6249 5.76287 60.7383 5.70422 60.799 5.62418C60.9048 5.48503 61.7097 5.26317 61.996 5.29429C62.071 5.30236 62.1323 5.26776 62.1323 5.21727C62.1323 5.16679 62.2858 5.12548 62.4736 5.12548C62.8587 5.12548 63.3414 4.87949 63.1479 4.78173C63.0783 4.74657 62.9563 4.77081 62.8771 4.83561C62.7978 4.90032 62.475 4.95705 62.1599 4.96164C61.8449 4.96614 61.587 5.01176 61.587 5.06298C61.587 5.11419 61.5427 5.13365 61.4883 5.1063C61.3255 5.02406 62.0225 4.39585 62.2793 4.39346C62.4102 4.39217 62.4701 4.42962 62.4127 4.47662C62.3551 4.52362 62.3933 4.5886 62.4972 4.6211C62.6014 4.65359 62.6748 4.64616 62.6604 4.60448C62.5885 4.39511 62.7317 4.33609 63.3109 4.33609C63.7033 4.33609 63.859 4.36482 63.7198 4.41172C63.409 4.51627 64.2854 4.44504 64.8584 4.31911C65.1083 4.26413 65.3266 4.21658 65.3433 4.21337C65.3602 4.21025 65.5029 4.23255 65.6603 4.26312ZM139.498 4.86737C139.44 4.94053 139.397 4.91877 139.388 4.81184C139.381 4.71509 139.423 4.66094 139.484 4.69141C139.544 4.72188 139.551 4.8011 139.498 4.86737ZM86.3044 4.9419C86.3044 4.99239 86.2226 5.03369 86.1227 5.03369C86.0227 5.03369 85.9409 4.99239 85.9409 4.9419C85.9409 4.89142 86.0227 4.85011 86.1227 4.85011C86.2226 4.85011 86.3044 4.89142 86.3044 4.9419ZM88.9108 5.03911C88.7674 5.11153 86.0223 5.6743 85.8046 5.67586C85.7797 5.67604 85.7592 5.63767 85.7592 5.59058C85.7592 5.5435 85.9431 5.47585 86.1681 5.44032C86.3931 5.40471 86.9859 5.28327 87.4857 5.17046C88.6007 4.91877 88.9168 4.86508 89.0184 4.91014C89.0618 4.92924 89.0133 4.98734 88.9108 5.03911ZM120.654 4.9419C120.654 4.99239 120.532 5.03369 120.382 5.03369C120.232 5.03369 120.109 4.99239 120.109 4.9419C120.109 4.89142 120.232 4.85011 120.382 4.85011C120.532 4.85011 120.654 4.89142 120.654 4.9419ZM85.7592 5.03369C85.7592 5.08418 85.6774 5.12548 85.5774 5.12548C85.4775 5.12548 85.3957 5.08418 85.3957 5.03369C85.3957 4.98321 85.4775 4.9419 85.5774 4.9419C85.6774 4.9419 85.7592 4.98321 85.7592 5.03369ZM10.7903 5.30851C10.4265 5.51146 10.1531 5.54744 10.1531 5.39223C10.1531 5.33706 10.3167 5.27024 10.5166 5.24389C10.7165 5.21746 10.8801 5.15247 10.8801 5.09951C10.8801 5.04645 10.9341 5.03039 11.0002 5.06371C11.0662 5.09703 10.9717 5.20718 10.7903 5.30851ZM8.88089 5.44133C8.88089 5.46364 8.79911 5.50733 8.69915 5.53854C8.59919 5.56975 8.5174 5.55148 8.5174 5.49806C8.5174 5.44464 8.59919 5.40085 8.69915 5.40085C8.79911 5.40085 8.88089 5.41903 8.88089 5.44133ZM9.72619 5.72653C9.44466 5.88101 9.36597 5.82483 9.52027 5.5792C9.61242 5.43261 9.68748 5.40912 9.79144 5.49411C9.87068 5.55892 9.84142 5.66319 9.72619 5.72653ZM85.5774 5.67622C85.5774 5.72671 85.4907 5.76801 85.3849 5.76801C85.2792 5.76801 85.243 5.72671 85.3048 5.67622C85.3666 5.62574 85.4531 5.58443 85.4973 5.58443C85.5414 5.58443 85.5774 5.62574 85.5774 5.67622ZM85.0322 5.76801C85.0322 5.8185 84.9962 5.8598 84.952 5.8598C84.9079 5.8598 84.8214 5.8185 84.7596 5.76801C84.6978 5.71753 84.7339 5.67622 84.8397 5.67622C84.9455 5.67622 85.0322 5.71753 85.0322 5.76801ZM8.79002 5.95159C8.28986 6.06018 8.11193 6.06018 8.24478 5.95159C8.30658 5.90111 8.5363 5.86274 8.7553 5.86623C9.13915 5.87247 9.14042 5.8755 8.79002 5.95159ZM84.4059 5.9426C84.0771 6.00759 84.0836 6.01732 84.4968 6.07918C84.9204 6.14279 84.9242 6.14959 84.5778 6.22586C84.1024 6.3305 83.7821 6.33794 84.0975 6.23706C84.5638 6.08772 83.977 6.0354 83.361 6.17125C83.0306 6.24413 82.883 6.30774 83.033 6.3127C83.2752 6.32059 83.2752 6.33142 83.033 6.41055C82.6593 6.53253 82.479 6.52427 82.5332 6.3876C82.5904 6.24312 83.9112 5.88046 84.3961 5.87605C84.7508 5.87275 84.751 5.8744 84.4059 5.9426ZM58.9517 6.31876C59.0135 6.36924 58.9823 6.41055 58.8823 6.41055C58.7823 6.41055 58.65 6.36924 58.5882 6.31876C58.5264 6.26827 58.5577 6.22696 58.6577 6.22696C58.7576 6.22696 58.8899 6.26827 58.9517 6.31876ZM64.738 6.78349C64.5982 6.85407 64.5159 6.81249 64.4497 6.63791C64.3652 6.41468 64.3821 6.40605 64.6454 6.53896C64.8514 6.64305 64.8779 6.71281 64.738 6.78349ZM113.657 6.50234C113.595 6.55282 113.463 6.59413 113.363 6.59413C113.263 6.59413 113.232 6.55282 113.294 6.50234C113.355 6.45185 113.488 6.41055 113.588 6.41055C113.688 6.41055 113.719 6.45185 113.657 6.50234ZM85.0322 6.64002C85.0322 6.71575 85.1114 6.77771 85.2083 6.77771C85.305 6.77771 85.3372 6.71575 85.2797 6.64002C85.2221 6.56429 85.1429 6.50234 85.1036 6.50234C85.0643 6.50234 85.0322 6.56429 85.0322 6.64002ZM85.7055 6.56374C85.6414 6.61606 85.7065 6.73723 85.85 6.83305C86.1308 7.0204 86.1821 6.93311 85.9594 6.64608C85.88 6.54373 85.7726 6.50885 85.7055 6.56374ZM6.5182 6.77771C6.5182 6.82819 6.43151 6.8695 6.32573 6.8695C6.21996 6.8695 6.18379 6.82819 6.24558 6.77771C6.30738 6.72722 6.39389 6.68592 6.43805 6.68592C6.48222 6.68592 6.5182 6.72722 6.5182 6.77771ZM23.2319 6.82773C23.113 6.90006 22.9433 6.93659 22.8547 6.90897C22.7661 6.88134 22.6935 6.92062 22.6935 6.99635C22.6935 7.14477 22.3673 7.28613 22.2092 7.20627C22.0371 7.11926 22.7521 6.72272 23.1052 6.70932C23.3829 6.69877 23.4071 6.72125 23.2319 6.82773ZM71.2195 6.87785C71.4431 6.95771 71.4476 6.98423 71.2444 7.02526C71.0352 7.06749 71.0352 7.08897 71.2444 7.16295C71.4536 7.23702 71.4536 7.25841 71.2444 7.30063C71.0516 7.33955 71.0467 7.36626 71.2223 7.42106C71.4985 7.50734 71.298 7.69561 70.9302 7.69561C70.7828 7.69561 70.2448 7.80245 69.7345 7.93307C68.9917 8.12307 68.7761 8.14602 68.6529 8.0478C68.5379 7.95611 68.4983 7.95409 68.4961 8.03982C68.4946 8.10297 68.3707 8.15456 68.2207 8.15456C68.0708 8.15456 67.9481 8.21927 67.9481 8.29839C67.9481 8.40367 68.0579 8.42671 68.357 8.38422C68.6771 8.33869 68.7067 8.34704 68.4934 8.42249C68.3434 8.47555 68.0697 8.51951 67.8852 8.52034C67.7008 8.52107 67.2918 8.58955 66.9765 8.67253C65.6474 9.02216 65.4037 9.05566 65.4037 8.88888C65.4037 8.83839 65.5313 8.79709 65.687 8.79709C65.8428 8.79709 65.9253 8.76028 65.8704 8.7153C65.7635 8.6281 66.5278 8.33814 66.8642 8.33814C66.9749 8.33814 67.1881 8.27618 67.338 8.20045C67.4879 8.12472 67.7771 8.06277 67.9805 8.06277C68.2027 8.06277 68.3154 8.01669 68.2629 7.94757C68.2147 7.88414 68.2822 7.78189 68.4128 7.7203C68.6017 7.63126 68.6669 7.64072 68.7324 7.76674C68.7905 7.87845 68.8209 7.86175 68.8358 7.70993C68.8487 7.57756 68.9966 7.47641 69.2203 7.44686C69.4203 7.42042 69.5838 7.35543 69.5838 7.30247C69.5838 7.24941 69.6345 7.23161 69.6963 7.26291C69.8346 7.33276 70.1981 7.15515 70.3608 6.93834C70.4969 6.75678 70.8173 6.7342 71.2195 6.87785ZM81.0338 6.96129C81.0338 7.01177 81.1614 7.05308 81.3171 7.05308C81.4729 7.05308 81.5499 7.01177 81.4881 6.96129C81.4264 6.9108 81.299 6.8695 81.2048 6.8695C81.1107 6.8695 81.0338 6.9108 81.0338 6.96129ZM84.7777 7.01636C84.713 7.10145 84.701 7.19177 84.751 7.21701C84.801 7.24226 84.8948 7.19324 84.9595 7.10815C85.0242 7.02306 85.0362 6.93274 84.9862 6.9075C84.9362 6.88225 84.8424 6.93127 84.7777 7.01636ZM107.333 6.99956C107.273 7.09291 106.186 7.40619 105.887 7.41583C105.514 7.42795 105.82 7.21499 106.296 7.1311C106.596 7.07832 106.842 7.0047 106.842 6.96762C106.842 6.93044 106.967 6.90006 107.119 6.90006C107.272 6.90006 107.368 6.94486 107.333 6.99956ZM111.486 7.19829C111.088 7.34543 110.84 7.36553 110.84 7.2507C110.84 7.15808 111.618 6.96569 111.748 7.02609C111.798 7.04922 111.68 7.12669 111.486 7.19829ZM127.561 7.23666C127.561 7.28714 127.479 7.32845 127.379 7.32845C127.279 7.32845 127.197 7.28714 127.197 7.23666C127.197 7.18617 127.279 7.14487 127.379 7.14487C127.479 7.14487 127.561 7.18617 127.561 7.23666ZM125.801 7.36397C125.87 7.45502 125.785 7.47917 125.502 7.44897C125.109 7.40683 125.109 7.40757 125.471 7.56343C125.793 7.70277 125.797 7.71378 125.501 7.6621C125.318 7.63007 125.09 7.60382 124.995 7.60382C124.892 7.60382 124.901 7.5291 125.016 7.42024C125.241 7.20838 125.66 7.17828 125.801 7.36397ZM126.652 7.32845C126.652 7.37893 126.57 7.42024 126.47 7.42024C126.37 7.42024 126.288 7.37893 126.288 7.32845C126.288 7.27796 126.37 7.23666 126.47 7.23666C126.57 7.23666 126.652 7.27796 126.652 7.32845ZM70.4017 7.51203C70.3399 7.56251 70.3711 7.60382 70.4711 7.60382C70.5711 7.60382 70.7034 7.56251 70.7652 7.51203C70.827 7.46154 70.7957 7.42024 70.6957 7.42024C70.5958 7.42024 70.4635 7.46154 70.4017 7.51203ZM77.7624 7.51203C77.7624 7.56251 77.7264 7.60382 77.6822 7.60382C77.638 7.60382 77.5515 7.56251 77.4897 7.51203C77.428 7.46154 77.4641 7.42024 77.5699 7.42024C77.6757 7.42024 77.7624 7.46154 77.7624 7.51203ZM83.3965 7.51203C83.2327 7.56545 83.2102 7.60152 83.3403 7.60244C83.4594 7.60317 83.6073 7.56251 83.6691 7.51203C83.8085 7.39802 83.7456 7.39802 83.3965 7.51203ZM113.748 7.50129C113.748 7.59721 112.82 7.70047 112.594 7.62979C112.508 7.6029 112.548 7.54535 112.683 7.50193C113.008 7.3983 113.748 7.39784 113.748 7.50129ZM129.015 7.55792C129.015 7.63365 128.933 7.69561 128.833 7.69561C128.733 7.69561 128.651 7.63365 128.651 7.55792C128.651 7.48219 128.733 7.42024 128.833 7.42024C128.933 7.42024 129.015 7.48219 129.015 7.55792ZM114.838 7.59666C114.838 7.69808 113.587 7.92012 113.438 7.84504C113.381 7.81613 113.529 7.756 113.768 7.71139C114.007 7.66669 114.325 7.60684 114.475 7.57839C114.625 7.54984 114.768 7.52322 114.793 7.51928C114.818 7.51533 114.838 7.55012 114.838 7.59666ZM128.342 7.65843C128.279 7.80291 127.197 7.87313 127.197 7.73278C127.197 7.661 127.311 7.63163 127.47 7.66238C127.62 7.69148 127.742 7.67321 127.742 7.62172C127.742 7.57031 127.886 7.53892 128.06 7.55186C128.235 7.56481 128.362 7.61281 128.342 7.65843ZM69.313 7.69707C69.3759 7.74838 69.5033 7.76665 69.5964 7.73755C69.8484 7.65889 69.8016 7.60382 69.4822 7.60382C69.3265 7.60382 69.2503 7.64576 69.313 7.69707ZM82.306 7.74912C82.0525 7.82017 81.9721 7.87579 82.1243 7.87487C82.2742 7.87405 82.5557 7.81273 82.7496 7.73856C83.1871 7.57151 82.917 7.57793 82.306 7.74912ZM45.4177 8.0378C45.1794 8.17328 45.186 8.18274 45.478 8.1261C45.6578 8.09131 45.9413 8.06212 46.1082 8.06139C46.3702 8.0601 46.3744 8.0479 46.1387 7.97098C45.7812 7.85431 45.7323 7.85881 45.4177 8.0378ZM37.5474 8.02642C37.4871 8.05689 37.3302 8.0602 37.1992 8.03367C37.0541 8.00439 37.0972 7.98263 37.309 7.97823C37.5005 7.97428 37.6077 7.99594 37.5474 8.02642ZM66.9436 8.09443C66.7464 8.16227 66.4215 8.2402 66.2215 8.26755C66.0216 8.2949 65.6945 8.34319 65.4946 8.37485C65.2946 8.40652 65.54 8.33116 66.0398 8.20734C67.0401 7.95959 67.5034 7.90167 66.9436 8.09443ZM5.79122 8.09746C5.79122 8.11646 5.64801 8.18879 5.47317 8.2581C5.18492 8.37219 5.17856 8.36898 5.40447 8.2234C5.64201 8.07048 5.79122 8.02192 5.79122 8.09746ZM22.9662 8.24635C23.0279 8.29683 23.1145 8.33814 23.1586 8.33814C23.2028 8.33814 23.2388 8.29683 23.2388 8.24635C23.2388 8.19586 23.1521 8.15456 23.0463 8.15456C22.9405 8.15456 22.9044 8.19586 22.9662 8.24635ZM127.561 8.24635C127.397 8.29977 127.374 8.33584 127.504 8.33676C127.623 8.33749 127.771 8.29683 127.833 8.24635C127.973 8.13234 127.91 8.13234 127.561 8.24635ZM54.2282 8.33667C54.1655 8.38798 53.939 8.42993 53.7249 8.42993C53.4581 8.42993 53.3947 8.45967 53.5228 8.52438C53.6511 8.58918 53.8669 8.5778 54.2089 8.48812C54.4833 8.41625 54.6256 8.33171 54.5251 8.30041C54.4246 8.26902 54.291 8.28536 54.2282 8.33667ZM70.0845 8.42167C69.5515 8.5119 69.2272 8.62021 69.2356 8.7053C69.2447 8.79929 69.2781 8.80663 69.3406 8.72824C69.3912 8.66518 69.5798 8.61351 69.7599 8.61351C70.2068 8.61351 71.304 8.37393 71.1061 8.3195C71.0185 8.29536 70.5589 8.34135 70.0845 8.42167ZM75.3997 8.42993C74.5709 8.65913 74.2423 8.66362 74.9453 8.43617C75.2452 8.33915 75.6132 8.25846 75.7632 8.2569C75.9131 8.25534 75.7495 8.33318 75.3997 8.42993ZM91.7568 8.33814C91.6068 8.38706 91.3615 8.42488 91.2115 8.42203C91.0318 8.41873 91.0627 8.39018 91.3024 8.33814C91.802 8.22973 92.089 8.22973 91.7568 8.33814ZM110.398 8.34768C110.49 8.42368 109.632 8.61351 109.196 8.61351C109.001 8.61351 108.841 8.65013 108.841 8.69483C108.841 8.73953 108.555 8.84482 108.205 8.92862C107.424 9.1156 107.384 9.19922 108.114 9.11835C108.794 9.0429 108.813 9.11615 108.159 9.29532L107.659 9.43227L108.283 9.43595C109.135 9.44099 110.112 9.24961 110.116 9.07695C110.118 8.96341 110.15 8.95956 110.273 9.05795C110.386 9.14818 110.451 9.11872 110.516 8.9479C110.564 8.81967 110.518 8.67133 110.413 8.61819C110.28 8.55072 110.288 8.52172 110.44 8.52172C110.56 8.52172 110.658 8.55421 110.658 8.59396C110.658 8.6337 110.822 8.67244 111.022 8.68005C111.469 8.69704 111.506 8.5498 111.067 8.49657C110.805 8.46462 110.829 8.44021 111.204 8.35705C111.633 8.26177 111.621 8.25718 110.994 8.27416C110.629 8.28416 110.361 8.31721 110.398 8.34768ZM113.35 8.30904C113.482 8.33557 113.638 8.33226 113.699 8.30179C113.759 8.27131 113.652 8.24965 113.46 8.2536C113.249 8.258 113.205 8.27976 113.35 8.30904ZM4.46884 8.51988C4.5021 8.74357 4.19477 8.85363 3.92161 8.71567C3.77312 8.64068 3.78021 8.61351 3.94814 8.61351C4.07391 8.61351 4.1308 8.57569 4.07427 8.52952C4.01775 8.48335 4.07427 8.42469 4.19986 8.39909C4.32544 8.37357 4.43122 8.34933 4.43485 8.34539C4.43867 8.34144 4.45394 8.41992 4.46884 8.51988ZM7.7657 8.65353C7.40203 8.82435 7.06089 9.0194 7.00746 9.08705C6.94748 9.16315 6.90496 9.14112 6.89605 9.02931C6.88824 8.92991 7.1474 8.73375 7.47236 8.59359C8.31276 8.23074 8.55866 8.28104 7.7657 8.65353ZM9.15351 8.42993C9.09172 8.48041 8.94378 8.52107 8.82473 8.52034C8.6946 8.51942 8.71714 8.48335 8.88089 8.42993C9.23002 8.31592 9.29291 8.31592 9.15351 8.42993ZM3.25042 8.6572C3.06468 8.77019 3.06559 8.79709 3.25478 8.79709C3.38364 8.79709 3.44634 8.81875 3.394 8.84519C3.34166 8.87153 3.16082 8.86648 2.99234 8.8338C2.70537 8.77818 2.70555 8.7634 2.99543 8.60157C3.35729 8.39973 3.5901 8.45049 3.25042 8.6572ZM78.4401 8.48537C78.3798 8.51584 78.2229 8.51915 78.0919 8.49262C77.9468 8.46334 77.9899 8.44158 78.2016 8.43718C78.3932 8.43323 78.5004 8.45489 78.4401 8.48537ZM120.161 8.62783C120.175 8.71833 120.297 8.81379 120.433 8.84014C120.585 8.86969 120.636 8.95717 120.566 9.06906C120.46 9.23704 120.495 9.24282 121.053 9.14873C122.019 8.98581 122.019 8.91843 121.051 8.68446C120.219 8.48326 120.139 8.47812 120.161 8.62783ZM74.1275 8.7053C74.1275 8.75578 74.0408 8.79709 73.935 8.79709C73.8292 8.79709 73.793 8.75578 73.8548 8.7053C73.9166 8.65481 74.0031 8.61351 74.0473 8.61351C74.0915 8.61351 74.1275 8.65481 74.1275 8.7053ZM117.201 8.7053C117.201 8.75578 117.119 8.79709 117.019 8.79709C116.919 8.79709 116.838 8.75578 116.838 8.7053C116.838 8.65481 116.919 8.61351 117.019 8.61351C117.119 8.61351 117.201 8.65481 117.201 8.7053ZM119.382 8.79709C119.382 8.84757 119.3 8.88888 119.2 8.88888C119.1 8.88888 119.019 8.84757 119.019 8.79709C119.019 8.7466 119.1 8.7053 119.2 8.7053C119.3 8.7053 119.382 8.7466 119.382 8.79709ZM26.267 9.0954C26.2167 9.15856 26.1754 9.10688 26.1754 8.98067C26.1754 8.85445 26.2167 8.80287 26.267 8.86593C26.3175 8.92908 26.3175 9.03234 26.267 9.0954ZM42.6855 8.88888C42.6855 8.93936 42.5988 8.98067 42.4931 8.98067C42.3873 8.98067 42.3511 8.93936 42.4129 8.88888C42.4747 8.83839 42.5612 8.79709 42.6054 8.79709C42.6495 8.79709 42.6855 8.83839 42.6855 8.88888ZM121.29 8.88888C121.229 8.93936 121.096 8.98067 120.996 8.98067C120.896 8.98067 120.865 8.93936 120.927 8.88888C120.989 8.83839 121.121 8.79709 121.221 8.79709C121.321 8.79709 121.352 8.83839 121.29 8.88888ZM4.979 9.06787C4.91212 9.12248 4.79017 9.14626 4.70802 9.12065C4.62587 9.09504 4.42522 9.17691 4.26202 9.30276C3.94469 9.54738 3.61028 9.60539 3.61028 9.41584C3.61028 9.30404 4.13988 9.08714 4.70075 8.96929C5.03534 8.89888 5.14021 8.93606 4.979 9.06787ZM50.8641 8.98067C50.8641 9.03115 50.8281 9.07246 50.7839 9.07246C50.7397 9.07246 50.6532 9.03115 50.5914 8.98067C50.5296 8.93018 50.5658 8.88888 50.6716 8.88888C50.7774 8.88888 50.8641 8.93018 50.8641 8.98067ZM73.4005 9.02115C73.4005 9.09394 73.3187 9.17893 73.2187 9.21014C73.1188 9.24135 73.037 9.24713 73.037 9.22308C73.037 9.19894 72.9874 9.11395 72.9267 9.03409C72.8543 8.93881 72.9167 8.88888 73.1084 8.88888C73.2691 8.88888 73.4005 8.94836 73.4005 9.02115ZM1.24195 9.30193C1.24195 9.35242 1.16271 9.33176 1.06584 9.25604C0.968972 9.18031 0.889731 9.07705 0.889731 9.02656C0.889731 8.97608 0.968972 8.99673 1.06584 9.07246C1.16271 9.14818 1.24195 9.25145 1.24195 9.30193ZM6.69995 9.06227C6.69995 9.10715 6.53201 9.24144 6.32682 9.36059L5.9537 9.5773L6.07874 9.34783C6.14744 9.22162 6.29484 9.08797 6.40643 9.05089C6.6696 8.96332 6.69995 8.96451 6.69995 9.06227ZM64.3419 9.25604C64.3419 9.38225 64.3832 9.43393 64.4335 9.37077C64.484 9.30771 64.484 9.20445 64.4335 9.1413C64.3832 9.07824 64.3419 9.12983 64.3419 9.25604ZM50.3188 9.25604C50.3188 9.30652 50.237 9.34783 50.1371 9.34783C50.0371 9.34783 49.9553 9.30652 49.9553 9.25604C49.9553 9.20555 50.0371 9.16425 50.1371 9.16425C50.237 9.16425 50.3188 9.20555 50.3188 9.25604ZM66.9485 9.25604C66.8867 9.30652 66.9229 9.34783 67.0287 9.34783C67.1344 9.34783 67.2211 9.30652 67.2211 9.25604C67.2211 9.20555 67.1852 9.16425 67.141 9.16425C67.0968 9.16425 67.0103 9.20555 66.9485 9.25604ZM95.2099 9.25604C95.2099 9.30652 95.1232 9.34783 95.0174 9.34783C94.9117 9.34783 94.8755 9.30652 94.9373 9.25604C94.9991 9.20555 95.0856 9.16425 95.1298 9.16425C95.1739 9.16425 95.2099 9.20555 95.2099 9.25604ZM5.44318 9.38886C5.5346 9.36031 5.60948 9.39693 5.60948 9.47027C5.60948 9.54362 5.49697 9.62531 5.35958 9.65202C5.18546 9.68571 5.11077 9.62604 5.11331 9.45531C5.11531 9.32047 5.15293 9.262 5.19691 9.32543C5.24108 9.38886 5.35176 9.4174 5.44318 9.38886ZM26.0853 9.55435C26.0349 9.61751 25.9937 9.56583 25.9937 9.43962C25.9937 9.31341 26.0349 9.26182 26.0853 9.32488C26.1358 9.38803 26.1358 9.49129 26.0853 9.55435ZM94.2885 9.55977C94.2761 9.75363 94.2701 9.75427 94.1195 9.5773C93.9044 9.3247 93.9044 9.23483 94.1195 9.30193C94.2194 9.33314 94.2954 9.44916 94.2885 9.55977ZM134.649 9.34783C134.485 9.40125 134.462 9.43732 134.592 9.43824C134.712 9.43897 134.859 9.39831 134.921 9.34783C135.061 9.23382 134.998 9.23382 134.649 9.34783ZM39.6322 9.45797C39.3476 9.60172 39.3545 9.71499 39.6478 9.71499C39.7763 9.71499 39.8814 9.63238 39.8814 9.53141C39.8814 9.43044 39.8745 9.34783 39.8659 9.34783C39.8574 9.34783 39.7522 9.39739 39.6322 9.45797ZM107.304 9.43328C107.246 9.48028 107.282 9.54463 107.384 9.57638C107.486 9.60805 107.569 9.56959 107.569 9.49093C107.569 9.32965 107.46 9.30597 107.304 9.43328ZM136.013 9.43861C135.949 9.49056 136.022 9.50598 136.184 9.47468C136.499 9.41364 136.556 9.34783 136.295 9.34783C136.201 9.34783 136.074 9.38867 136.013 9.43861ZM3.38291 9.59988C3.43198 9.67432 3.29477 9.70737 2.98907 9.69452C2.51562 9.67478 2.4133 9.61576 2.64721 9.49763C2.83404 9.40336 3.29568 9.46752 3.38291 9.59988ZM96.1186 9.4801C96.1186 9.5024 96.0369 9.54609 95.9369 9.5773C95.8369 9.60851 95.7552 9.59025 95.7552 9.53682C95.7552 9.4834 95.8369 9.43962 95.9369 9.43962C96.0369 9.43962 96.1186 9.45779 96.1186 9.4801ZM106.656 9.57941C106.464 9.69626 106.476 9.70975 106.725 9.66138C106.889 9.62953 107.023 9.56665 107.023 9.52159C107.023 9.40354 106.918 9.42016 106.656 9.57941ZM63.4879 9.72114C63.3212 9.85726 63.4779 9.91381 63.8318 9.84524C63.9955 9.81348 64.0842 9.7506 64.0288 9.70535C63.8928 9.59419 63.634 9.60172 63.4879 9.72114ZM64.3132 9.70957C64.3132 9.75712 64.3814 9.81724 64.4646 9.84322C64.548 9.86919 64.6162 9.83037 64.6162 9.75684C64.6162 9.68332 64.548 9.6232 64.4646 9.6232C64.3814 9.6232 64.3132 9.66202 64.3132 9.70957ZM3.1441 9.90821C3.01724 10.0118 2.5198 10.0163 2.5198 9.9139C2.5198 9.78466 2.72445 9.72518 2.99089 9.77685C3.13047 9.80384 3.19953 9.86295 3.1441 9.90821ZM4.94465 9.83661C5.01044 9.80338 5.06424 9.8244 5.06424 9.88324C5.06424 9.94217 4.9143 9.99036 4.7311 9.99036C4.54772 9.99036 4.39778 9.92904 4.39778 9.85414C4.39778 9.76015 4.46412 9.74565 4.61151 9.80742C4.72892 9.85671 4.87886 9.86984 4.94465 9.83661ZM25.965 10.2657C25.965 10.3162 25.929 10.3575 25.8848 10.3575C25.8406 10.3575 25.7541 10.3162 25.6923 10.2657C25.6305 10.2152 25.6667 10.1739 25.7725 10.1739C25.8783 10.1739 25.965 10.2152 25.965 10.2657ZM4.01012 10.4677C3.84055 10.5533 3.7435 10.5533 3.57393 10.4677C3.40436 10.382 3.4527 10.3575 3.79202 10.3575C4.13134 10.3575 4.17969 10.382 4.01012 10.4677ZM11.6071 10.3936C11.6071 10.4134 11.4802 10.4543 11.325 10.4844C11.1632 10.5157 11.0904 10.5003 11.154 10.4483C11.2607 10.361 11.6071 10.3192 11.6071 10.3936Z" fill="#FF5E19"/>
</svg>
